<?xml version="1.0" standalone="no"?>
<!DOCTYPE svg PUBLIC "-//W3C//DTD SVG 20010904//EN"
 "http://www.w3.org/TR/2001/REC-SVG-20010904/DTD/svg10.dtd">
<svg version="1.0" xmlns="http://www.w3.org/2000/svg"
 width="360.000000pt" height="360.000000pt" viewBox="0 0 360.000000 360.000000"
 preserveAspectRatio="xMidYMid meet">

<g transform="translate(0.000000,360.000000) scale(0.100000,-0.100000)"
fill="#000000" stroke="none">
<path d="M1505 2434 c-18 -16 -22 -22 -9 -15 18 9 53 42 43 41 -2 -1 -17 -12
-34 -26z"/>
<path d="M1560 2440 c-9 -6 -10 -10 -3 -10 6 0 15 5 18 10 8 12 4 12 -15 0z"/>
<path d="M2274 2408 l-19 -23 23 19 c21 18 27 26 19 26 -2 0 -12 -10 -23 -22z"/>
<path d="M1424 2364 c-18 -14 -18 -15 4 -4 12 6 22 13 22 15 0 8 -5 6 -26 -11z"/>
<path d="M1740 2320 c-11 -8 -7 -9 15 -4 37 8 45 14 19 14 -10 0 -26 -5 -34
-10z"/>
<path d="M1690 2296 c0 -3 9 -10 20 -16 11 -6 20 -8 20 -6 0 3 -9 10 -20 16
-11 6 -20 8 -20 6z"/>
<path d="M2573 2278 c-24 -5 -43 -13 -43 -18 0 -5 15 -18 33 -30 31 -21 32
-21 8 -1 -26 24 -25 29 9 36 13 3 28 9 34 15 5 5 8 10 6 9 -3 -1 -24 -5 -47
-11z"/>
<path d="M1624 2251 c4 -6 16 -16 28 -22 15 -8 18 -8 14 0 -4 6 -16 16 -28 22
-15 8 -18 8 -14 0z"/>
<path d="M1706 2224 c-5 -14 -4 -15 9 -4 17 14 19 20 6 20 -5 0 -12 -7 -15
-16z"/>
<path d="M1795 2233 c18 -18 124 -93 132 -93 4 0 -20 19 -52 43 -65 47 -97 67
-80 50z"/>
<path d="M1550 2212 c0 -5 11 -14 25 -20 14 -6 25 -10 25 -8 0 2 -11 11 -25
20 -14 9 -25 13 -25 8z"/>
<path d="M1760 2206 c0 -19 14 -28 34 -20 13 5 14 9 5 20 -15 18 -39 18 -39 0z"/>
<path d="M2479 2186 c7 -17 5 -27 -7 -39 -9 -9 -13 -20 -9 -24 4 -4 14 3 23
15 8 12 23 22 32 22 24 1 56 26 43 35 -6 3 -11 1 -11 -5 0 -6 -4 -9 -9 -6 -5
4 -11 1 -13 -5 -2 -6 -14 -2 -27 10 -30 27 -32 26 -22 -3z"/>
<path d="M2620 2193 c109 -80 161 -126 149 -134 -7 -4 -17 -5 -23 -2 -5 4 -6
1 -1 -7 5 -9 2 -11 -11 -6 -41 12 -117 26 -121 23 -2 -3 29 -13 69 -24 59 -16
74 -17 76 -7 2 8 7 14 12 14 5 0 6 -7 3 -17 -4 -11 -3 -14 5 -9 34 21 -7 74
-108 142 -51 35 -88 54 -50 27z"/>
<path d="M1626 2185 c-3 -8 -1 -15 3 -15 5 0 11 7 15 15 3 8 1 15 -3 15 -5 0
-11 -7 -15 -15z"/>
<path d="M1720 2165 c0 -16 9 -19 34 -9 20 8 11 24 -15 24 -10 0 -19 -7 -19
-15z"/>
<path d="M2361 2158 c-17 -11 -30 -23 -27 -25 2 -3 16 3 31 13 25 16 27 16 49
-5 12 -11 25 -21 29 -21 15 0 5 17 -21 37 l-29 21 -32 -20z"/>
<path d="M2604 2173 c-15 -5 -6 -43 10 -42 6 0 19 4 30 8 17 7 17 8 -5 23 -13
8 -29 13 -35 11z"/>
<path d="M2557 2126 c-7 -19 18 -42 28 -26 4 6 14 9 23 5 13 -5 12 -2 -3 15
-21 23 -41 26 -48 6z"/>
<path d="M3057 2109 c-18 -11 -61 -85 -61 -108 -1 -8 -9 -15 -19 -17 -10 -1
-26 -9 -35 -17 -27 -22 -92 -57 -107 -57 -7 0 -15 -4 -17 -8 -4 -12 -132 -62
-174 -69 -43 -7 -81 17 -100 62 -23 56 -21 58 54 51 80 -6 71 1 -13 12 -36 4
-61 12 -61 20 -1 6 -2 21 -3 32 -2 33 -19 23 -32 -19 -11 -37 -13 -39 -65 -44
-47 -5 -248 -69 -384 -123 -28 -11 -73 -17 -118 -18 -53 0 -67 -3 -50 -9 38
-14 127 -1 218 33 47 17 93 35 102 41 22 12 31 12 23 0 -3 -5 16 2 42 15 63
34 180 61 196 45 7 -7 10 -37 9 -79 -6 -116 42 -192 120 -192 34 0 198 74 262
119 17 11 33 18 38 15 19 -12 -65 -157 -120 -209 -63 -59 -31 -55 107 13 57
29 135 62 172 74 64 20 71 21 97 6 15 -8 33 -13 40 -11 28 10 6 238 -32 325
-13 29 -26 65 -30 80 -8 33 -35 50 -59 37z"/>
<path d="M1845 2100 c27 -12 43 -12 25 0 -8 5 -22 9 -30 9 -10 0 -8 -3 5 -9z"/>
<path d="M2508 2093 c7 -3 16 -2 19 1 4 3 -2 6 -13 5 -11 0 -14 -3 -6 -6z"/>
<path d="M2578 2073 c7 -3 16 -2 19 1 4 3 -2 6 -13 5 -11 0 -14 -3 -6 -6z"/>
<path d="M1652 2040 c-10 -27 -15 -30 -54 -30 -40 -1 -91 -13 -363 -89 -118
-33 -158 -37 -202 -21 -26 9 -27 9 -9 -5 11 -8 37 -15 59 -15 34 0 217 40 257
57 8 3 20 7 25 8 6 2 41 12 80 24 69 22 185 39 185 28 0 -3 -4 -17 -9 -30 -9
-24 -9 -24 30 -13 27 7 39 16 39 28 0 13 8 18 30 18 17 0 30 5 30 11 0 7 -11
9 -30 6 -30 -6 -31 -5 -34 32 -2 27 -24 22 -34 -9z"/>
<path d="M2337 2063 c-4 -3 -7 -11 -7 -17 0 -6 5 -5 12 2 6 6 9 14 7 17 -3 3
-9 2 -12 -2z"/>
<path d="M2205 1990 c-3 -5 -1 -10 4 -10 6 0 11 5 11 10 0 6 -2 10 -4 10 -3 0
-8 -4 -11 -10z"/>
<path d="M2708 1933 c7 -3 16 -2 19 1 4 3 -2 6 -13 5 -11 0 -14 -3 -6 -6z"/>
<path d="M1625 1900 c3 -5 8 -10 11 -10 2 0 4 5 4 10 0 6 -5 10 -11 10 -5 0
-7 -4 -4 -10z"/>
<path d="M1945 1850 c4 -6 11 -8 16 -5 14 9 11 15 -7 15 -8 0 -12 -5 -9 -10z"/>
<path d="M1133 1833 c9 -2 23 -2 30 0 6 3 -1 5 -18 5 -16 0 -22 -2 -12 -5z"/>
<path d="M1240 1806 c0 -2 8 -10 18 -17 15 -13 16 -12 3 4 -13 16 -21 21 -21
13z"/>
<path d="M1314 1786 c-30 -23 -13 -25 41 -5 l50 17 -36 1 c-19 1 -44 -5 -55
-13z"/>
<path d="M458 1740 c-51 -6 -64 -18 -97 -85 -22 -45 -37 -175 -27 -230 9 -46
69 -105 108 -105 15 0 28 -4 28 -9 0 -12 30 -19 150 -33 58 -7 96 -14 85 -15
-30 -6 -95 -35 -95 -43 0 -5 7 -11 16 -14 26 -10 299 -7 449 5 77 6 176 12
220 12 89 2 225 -19 225 -34 0 -6 -4 -8 -8 -5 -10 6 -187 -20 -203 -30 -33
-20 42 -28 288 -32 290 -5 478 6 1073 63 481 47 545 58 572 99 20 29 6 33 -58
15 -107 -30 -211 -41 -632 -69 l-153 -11 -19 23 c-17 21 -19 22 -26 5 -11 -30
-48 -37 -181 -38 -116 0 -127 1 -149 22 -23 21 -25 22 -43 5 -30 -27 -56 -23
-481 85 -69 17 -141 40 -160 51 -19 10 -27 17 -17 14 154 -47 601 -73 984 -57
155 7 190 17 245 74 26 27 51 62 57 79 10 29 10 30 -13 24 -18 -4 -30 1 -48
22 -92 107 -221 182 -315 183 -63 1 -49 11 -152 -111 -50 -60 -68 -61 -178 -4
l-93 48 -183 7 c-131 6 -216 15 -302 32 -161 34 -171 35 -167 19 1 -8 -2 -11
-7 -8 -5 3 -19 -3 -32 -13 -23 -18 -24 -18 -74 10 -59 33 -79 36 -305 45 -91
3 -181 7 -200 8 -19 1 -56 -1 -82 -4z m562 -289 c0 -11 -25 -12 -137 -8 l-138
6 85 -14 c47 -7 107 -14 133 -14 36 -1 49 -5 54 -18 3 -10 17 -30 31 -45 20
-22 22 -28 10 -28 -18 0 -221 61 -363 108 l-90 31 207 -2 c169 -2 208 -5 208
-16z m1456 -13 c4 -6 3 -8 -4 -4 -6 4 -22 -10 -36 -31 -15 -21 -26 -32 -26
-26 0 7 5 15 10 18 18 11 10 25 -14 25 -15 0 -33 -11 -46 -27 -20 -27 -21 -27
-14 -4 6 23 5 24 -27 17 -19 -4 -50 -9 -69 -12 -19 -2 -49 -6 -66 -9 -120 -18
-231 -25 -374 -23 l-165 1 190 7 c171 7 463 41 582 69 52 12 51 12 59 -1z m6
-70 c-7 -7 -12 -8 -12 -2 0 6 3 14 7 17 3 4 9 5 12 2 2 -3 -1 -11 -7 -17z"/>
<path d="M1893 1743 c15 -2 37 -2 50 0 12 2 0 4 -28 4 -27 0 -38 -2 -22 -4z"/>
<path d="M2003 1733 c9 -2 23 -2 30 0 6 3 -1 5 -18 5 -16 0 -22 -2 -12 -5z"/>
<path d="M2060 1720 c8 -5 20 -10 25 -10 6 0 3 5 -5 10 -8 5 -19 10 -25 10 -5
0 -3 -5 5 -10z"/>
<path d="M2100 1706 c0 -2 8 -10 18 -17 15 -13 16 -12 3 4 -13 16 -21 21 -21
13z"/>
<path d="M3015 1493 c-63 -7 -148 -25 -171 -35 -28 -13 -40 -61 -25 -101 9
-23 16 -27 49 -27 46 0 275 28 296 36 25 9 31 52 13 89 -19 41 -61 50 -162 38z"/>
</g>
</svg>
