<?xml version="1.0" standalone="no"?>
<!DOCTYPE svg PUBLIC "-//W3C//DTD SVG 20010904//EN"
 "http://www.w3.org/TR/2001/REC-SVG-20010904/DTD/svg10.dtd">
<svg version="1.0" xmlns="http://www.w3.org/2000/svg"
 width="828.000000pt" height="828.000000pt" viewBox="0 0 828.000000 828.000000"
 preserveAspectRatio="xMidYMid meet">

<g transform="translate(0.000000,828.000000) scale(0.100000,-0.100000)"
fill="#000000" stroke="none">
<path d="M3539 4402 c-44 -17 -185 -94 -243 -134 -25 -18 -33 -19 -66 -8 -49
16 -67 9 -127 -49 -28 -27 -59 -52 -71 -55 -11 -4 -34 -22 -50 -40 -24 -27
-51 -40 -159 -74 -157 -50 -201 -74 -291 -157 -39 -36 -77 -65 -86 -65 -23 0
-114 -47 -158 -82 -20 -16 -70 -44 -110 -63 -40 -19 -116 -61 -168 -94 -52
-33 -131 -77 -176 -99 -54 -26 -91 -52 -110 -76 -38 -49 -45 -53 -399 -202
-45 -18 -126 -45 -180 -59 -280 -73 -420 -134 -484 -212 -26 -31 -67 -141 -56
-151 2 -2 15 18 28 45 45 88 82 112 152 99 27 -5 44 -18 70 -54 41 -57 116
-105 229 -143 78 -27 585 -116 766 -134 36 -4 126 -19 200 -33 116 -23 161
-27 320 -27 102 0 210 4 241 8 55 8 58 10 94 64 20 30 55 75 77 99 36 39 46
44 84 44 68 0 88 -13 147 -98 78 -111 151 -173 261 -221 141 -62 248 -89 561
-141 501 -84 682 -96 1068 -70 645 42 825 89 1246 329 202 114 206 116 341
160 314 101 525 140 822 149 118 4 201 11 208 18 12 12 -1 49 -49 144 -30 58
-64 152 -76 207 -3 18 -11 35 -16 38 -5 4 -9 35 -9 70 0 57 -20 147 -69 309
-15 48 -57 208 -91 345 -35 141 -44 160 -97 217 -48 53 -100 68 -206 61 -114
-8 -187 -47 -303 -163 l-92 -91 -29 37 c-24 32 -57 63 -133 123 -8 7 -48 40
-88 73 -132 111 -265 161 -386 144 -81 -12 -106 -23 -224 -104 -57 -39 -122
-82 -144 -96 l-42 -25 -22 22 c-37 37 -66 30 -118 -28 -25 -28 -46 -55 -46
-59 0 -4 -10 -10 -22 -13 -13 -4 -36 -25 -51 -49 -22 -35 -42 -49 -100 -75
l-72 -32 -8 27 c-4 15 -14 69 -21 119 -13 85 -18 97 -56 142 -49 58 -79 71
-170 71 -139 0 -217 -44 -402 -228 l-117 -116 -68 64 c-134 126 -225 226 -240
262 -23 57 -72 94 -163 122 -95 30 -182 33 -251 8z m-55 -118 c5 -12 2 -15
-10 -10 -8 3 -20 6 -25 6 -6 0 -7 5 -4 10 10 15 32 12 39 -6z m66 -22 c0 -11
-22 -32 -33 -32 -4 0 -5 5 -2 10 8 12 8 12 -33 1 -20 -6 -30 -6 -27 0 4 5 15
9 25 9 10 0 22 5 25 10 7 12 45 14 45 2z m2250 -23 c0 -5 -7 -6 -15 -3 -8 3
-28 1 -45 -4 -27 -10 -29 -9 -18 8 7 10 15 17 18 15 3 -2 12 0 20 5 15 9 40
-4 40 -21z m-2470 7 c0 -3 -4 -8 -10 -11 -5 -3 -10 -1 -10 4 0 6 5 11 10 11 6
0 10 -2 10 -4z m2367 -2 c-3 -3 -12 -4 -19 -1 -8 3 -5 6 6 6 11 1 17 -2 13 -5z
m-67 -28 c-12 -14 -20 -32 -17 -40 4 -10 1 -13 -9 -9 -21 8 -17 25 14 50 36
29 41 29 12 -1z m229 12 c0 -16 -59 -64 -59 -49 0 6 5 11 10 11 6 0 10 4 10 9
0 5 -16 5 -37 0 -51 -12 -73 -10 -43 3 14 6 30 12 37 13 6 2 19 8 30 14 25 14
53 14 52 -1z m-2629 -49 c0 -5 -12 -9 -26 -9 -22 0 -24 2 -14 14 12 15 40 11
40 -5z m259 12 c11 -7 9 -11 -7 -20 -17 -9 -20 -9 -17 1 4 10 -9 12 -52 11
-43 -2 -52 0 -33 6 34 12 92 13 109 2z m2181 5 c0 -2 -8 -10 -17 -17 -16 -13
-17 -12 -4 4 13 16 21 21 21 13z m-2335 -36 c3 -5 1 -10 -4 -10 -6 0 -11 5
-11 10 0 6 2 10 4 10 3 0 8 -4 11 -10z m2465 0 c43 -5 -44 -15 -100 -11 -64 5
-65 5 -20 11 41 5 81 5 120 0z m-291 -16 c6 4 11 3 11 -1 0 -5 -18 -14 -40
-20 -44 -11 -52 -3 -17 20 14 9 24 11 28 5 4 -6 12 -7 18 -4z m126 -15 c7 -8
4 -9 -13 -4 -14 4 -29 1 -39 -7 -14 -11 -16 -11 -10 4 4 12 0 18 -16 21 -12 3
-2 3 23 1 24 -2 49 -9 55 -15z m-105 -13 c0 -3 -4 -8 -10 -11 -5 -3 -10 -1
-10 4 0 6 5 11 10 11 6 0 10 -2 10 -4z"/>
<path d="M1083 2187 c-3 -6 -1 -7 4 -4 6 4 13 0 17 -8 3 -8 10 -15 16 -15 6 0
8 5 3 13 -4 6 6 4 21 -7 16 -10 25 -13 22 -7 -4 6 -2 11 4 11 6 0 8 5 5 10 -4
6 -11 8 -16 5 -5 -4 -9 -3 -9 2 0 12 -59 12 -67 0z"/>
<path d="M1245 2170 c-11 -5 -15 -9 -10 -10 6 -1 2 -5 -8 -9 -12 -4 3 -7 37
-8 31 -1 58 3 61 8 4 5 -3 9 -14 9 -12 0 -21 5 -21 10 0 12 -17 12 -45 0z"/>
<path d="M1372 2151 c-9 -6 -8 -12 7 -25 15 -14 33 -17 85 -14 36 1 66 0 66
-4 0 -5 17 -8 38 -9 20 0 55 -3 77 -7 33 -6 17 -10 -92 -20 -73 -8 -145 -17
-160 -21 l-28 -8 39 -17 c68 -29 312 -39 766 -33 394 6 480 10 750 39 63 6
122 11 130 10 11 -2 9 2 -4 13 -14 11 -43 15 -101 15 -45 0 -96 5 -113 11 -24
8 -37 7 -61 -5 -35 -19 -77 -21 -87 -5 -4 6 -17 8 -33 4 -44 -11 -295 -13
-308 -3 -9 7 -17 7 -25 0 -15 -12 -94 0 -110 16 -7 7 -23 6 -50 -4 -48 -17
-92 -19 -68 -4 10 6 11 10 3 10 -7 0 -13 8 -13 18 0 13 -2 14 -9 3 -6 -10 -10
-10 -13 -1 -2 8 -16 5 -47 -11 l-43 -22 -17 20 c-24 30 -51 36 -73 16 -26 -23
-49 -25 -71 -6 -22 20 -71 21 -115 2 -30 -13 -34 -12 -43 3 -14 26 -82 41
-126 29 -20 -6 -41 -7 -47 -2 -17 13 -89 21 -104 12z"/>
<path d="M1298 2123 c6 -2 18 -2 25 0 6 3 1 5 -13 5 -14 0 -19 -2 -12 -5z"/>
<path d="M7310 2003 c-58 -13 -159 -33 -225 -43 l-120 -19 95 5 c111 5 250 21
300 34 19 5 44 12 56 15 21 5 30 36 10 34 -6 0 -58 -12 -116 -26z"/>
<path d="M6145 1941 c-28 -3 -67 -16 -88 -29 -21 -12 -48 -22 -60 -22 -12 0
-53 -12 -92 -26 -84 -30 -174 -47 -275 -49 -41 -1 -99 -7 -129 -14 -29 -6
-106 -14 -170 -17 -180 -9 -607 -7 -628 4 -10 5 -45 10 -78 11 -33 1 -76 6
-95 11 -19 4 -75 11 -123 15 -49 4 -100 9 -115 11 -75 11 -112 15 -164 16 -31
1 -55 5 -53 8 2 3 -32 5 -76 4 -43 -2 -79 1 -79 6 0 4 -7 11 -16 14 -8 3 -12
2 -9 -4 4 -6 -17 -8 -57 -4 -36 4 -59 3 -55 -2 5 -5 -25 -14 -68 -20 -80 -13
-107 -26 -98 -50 5 -13 23 -23 94 -52 113 -46 892 -38 1714 18 199 13 373 36
520 66 66 14 127 27 135 29 144 29 590 64 833 65 31 0 46 4 37 8 -8 5 -71 5
-140 1 -123 -6 -511 -4 -580 4 -19 3 -58 2 -85 -2z"/>
</g>
</svg>
