<?xml version="1.0" standalone="no"?>
<!DOCTYPE svg PUBLIC "-//W3C//DTD SVG 20010904//EN"
 "http://www.w3.org/TR/2001/REC-SVG-20010904/DTD/svg10.dtd">
<svg version="1.0" xmlns="http://www.w3.org/2000/svg"
 width="281.000000pt" height="281.000000pt" viewBox="0 0 281.000000 281.000000"
 preserveAspectRatio="xMidYMid meet">

<g transform="translate(0.000000,281.000000) scale(0.100000,-0.100000)"
fill="#000000" stroke="none">
<path d="M1400 1772 l0 -187 -78 -78 -78 -77 0 54 c0 83 -31 119 -189 219 -27
18 -51 40 -53 50 -15 79 66 116 203 92 104 -19 117 -18 75 5 -46 24 -139 41
-187 33 -77 -12 -113 -43 -113 -100 0 -38 18 -62 94 -122 71 -57 91 -93 83
-152 -12 -90 -105 -177 -282 -264 -104 -51 -299 -117 -386 -131 -70 -12 -22
-24 93 -24 59 0 131 5 160 11 106 22 304 132 424 234 l40 35 59 -80 c51 -69
141 -160 159 -160 3 0 6 62 6 137 l0 137 25 -51 c34 -68 123 -159 179 -184 66
-29 160 -35 227 -15 100 28 181 120 194 218 l6 43 -17 -45 c-46 -125 -157
-210 -276 -210 -78 0 -159 42 -229 118 -105 113 -132 220 -77 313 34 59 98 95
149 85 80 -15 158 -104 169 -194 l7 -57 2 56 c1 74 -29 133 -91 173 -26 17
-47 35 -47 40 -1 14 150 0 194 -18 22 -10 54 -29 70 -44 25 -23 25 -21 -4 10
-63 69 -164 97 -283 78 -79 -12 -112 -26 -163 -71 l-35 -31 0 171 c0 145 -2
171 -15 171 -13 0 -15 -28 -15 -188z m-2 -514 l-3 -102 -82 113 -82 114 82 81
82 81 3 -92 c1 -51 1 -138 0 -195z"/>
<path d="M935 990 c-3 -6 1 -17 9 -26 9 -8 16 -11 16 -5 0 5 -5 13 -10 16 -6
4 -8 11 -5 16 4 5 4 9 1 9 -3 0 -8 -5 -11 -10z"/>
<path d="M1107 993 c-4 -3 -7 -15 -7 -25 0 -12 7 -18 23 -17 16 1 18 2 5 6
-10 2 -18 11 -18 20 0 10 6 13 16 9 8 -3 12 -2 9 4 -7 12 -19 13 -28 3z"/>
<path d="M1481 986 c-16 -19 -6 -36 20 -36 15 0 20 6 17 22 -4 27 -21 33 -37
14z m29 -17 c0 -5 -7 -9 -15 -9 -15 0 -20 12 -9 23 8 8 24 -1 24 -14z"/>
<path d="M1654 989 c-4 -7 -2 -15 4 -17 7 -2 10 -8 6 -13 -3 -5 0 -9 5 -9 6 0
10 9 8 20 -4 26 -13 34 -23 19z"/>
<path d="M1827 993 c-15 -14 -7 -43 12 -43 26 0 36 17 21 35 -14 16 -23 19
-33 8z m33 -24 c0 -5 -7 -9 -15 -9 -15 0 -20 12 -9 23 8 8 24 -1 24 -14z"/>
<path d="M1290 976 c0 -8 7 -16 15 -20 13 -4 14 -2 5 14 -13 23 -20 26 -20 6z"/>
</g>
</svg>
